HIERARCHY
ROOT Hips
{
	OFFSET 0.00000 0.00000 0.00000
	CHANNELS 6 Xposition Yposition Zposition Yrotation Zrotation Xrotation 
	JOINT Lumbar
	{
		OFFSET 0 0 0
		CHANNELS 3 Zrotation Xrotation Yrotation
		JOINT Neck
		{
			OFFSET 0.00 0.2701 0.00
			CHANNELS 3 Zrotation Xrotation Yrotation
			End Site
			{
				OFFSET 0.00 0.1379 0.00
			}
		}
		JOINT RightShoulder
		{
			OFFSET 0.0119 0.2289 0.1181
			CHANNELS 3 Zrotation Xrotation Yrotation
			JOINT RightElbow
			{
				OFFSET 0.00 -0.1475 0.00
				CHANNELS 2 Zrotation Yrotation
				JOINT RightWrist
				{
					OFFSET 0.00 -0.1605 0.00
					CHANNELS 2 Zrotation Xrotation
					End Site
					{
						OFFSET 0.0040 -0.1068 0.0006
					}
				}
			}
		}
		JOINT LeftShoulder
		{
			OFFSET 0.0119 0.2289 -0.1181
			CHANNELS 3 Zrotation Xrotation Yrotation
			JOINT LeftElbow
			{
				OFFSET 0.00 -0.1475 0.00
				CHANNELS 2 Zrotation Yrotation
				JOINT LeftWrist
				{
					OFFSET 0.00 -0.1605 0.00
					CHANNELS 2 Zrotation Xrotation
					End Site
					{
						OFFSET 0.0040 -0.1068 -0.0006
					}
				}
			}
		}
	}
	JOINT RightHip
	{
		OFFSET 0.0316 -0.0424 0.0458
		CHANNELS 3 Zrotation Xrotation Yrotation
		JOINT RightKnee
		{
			OFFSET 0.00 -0.2438 0.00
			CHANNELS 1 Zrotation
			JOINT RightAnkle
			{
				OFFSET 0.00 -0.2449 0.00
				CHANNELS 3 Zrotation Xrotation Yrotation
				End Site
				{
					OFFSET 0.1237 -0.0542 0.0051
				}
			}
		}
	}
	JOINT LeftHip
	{
		OFFSET 0.0316 -0.0424 -0.0458
		CHANNELS 3 Zrotation Xrotation Yrotation
		JOINT LeftKnee
		{
			OFFSET 0.00 -0.2438 0.00
			CHANNELS 1 Zrotation
			JOINT LeftAnkle
			{
				OFFSET 0.00 -0.2449 0.00
				CHANNELS 3 Zrotation Xrotation Yrotation
				End Site
				{
					OFFSET 0.1237 -0.0542 -0.0051
				}
			}
		}
	}
}
MOTION
Frames: 11
Frame Time: 0.02
-0.62123 -0.00163 0.1847 198.53561 -40.92157 -0.34744 49.87521 2.04241 6.27931 2.44168 -0.12859 -2.11994 -22.74544 -4.90529 -26.06918 31.8645 75.95708 -8.3376 0.43523 -5.94411 47.00876 -9.54913 63.30922 -82.94489 0.83816 0.83946 34.60564 -6.78031 -7.03764 -8.71136 -8.05768 -3.56623 -4.04246 35.75377 2.81408 7.80976 -13.25382 -7.08265 2.13796 3.30017
-0.62318 -0.00152 0.18258 197.66355 -41.04431 -0.30787 49.91552 2.24452 6.36247 2.3777 -0.13126 -2.11994 -22.12778 -5.04558 -27.18404 31.66358 73.5211 -8.75502 1.2247 -3.90057 50.05714 -9.97396 62.11804 -82.98675 1.22262 0.95458 34.26807 -6.6331 -7.44534 -7.55291 -6.56466 -3.99848 -4.18494 35.42515 2.83502 8.03312 -12.73305 -7.14252 2.2105 3.33897
-0.62526 -0.00137 0.18033 196.68931 -41.17807 -0.28243 49.97222 2.47887 6.47411 2.32815 -0.14337 -2.11994 -21.36431 -5.27113 -27.60682 31.66924 70.57824 -9.25203 2.16657 -1.21122 53.56164 -10.55497 60.47576 -83.02856 1.60021 1.07956 33.82874 -6.43744 -7.91493 -6.38135 -4.68247 -4.63613 -4.41485 35.06371 2.84154 8.25351 -12.14693 -7.21568 2.29991 3.38675
-0.62728 -0.00124 0.17814 195.76115 -41.30533 -0.25172 50.01738 2.69785 6.55733 2.2812 -0.15576 -2.11994 -20.6581 -5.48094 -28.23026 31.58941 68.05096 -9.66241 2.98705 1.61912 56.80458 -11.30182 58.87953 -83.08819 1.95743 1.18005 33.44281 -6.26502 -8.24842 -5.23561 -3.03978 -5.27144 -4.65997 34.71009 2.85356 8.46563 -11.58107 -7.28518 2.3807 3.42996
-0.62929 -0.00111 0.17597 194.82517 -41.43682 -0.21552 50.07846 2.92115 6.71638 2.19193 -0.14807 -2.11994 -19.98303 -5.60657 -29.29851 31.48257 64.76398 -10.26524 4.02697 2.65434 60.31359 -11.13945 57.92874 -83.07781 2.41409 1.35531 33.02804 -6.08637 -9.02622 -4.02509 -1.12664 -5.5313 -4.67928 34.38357 2.86823 8.72692 -11.05551 -7.35007 2.4509 3.46745
-0.63135 -0.00097 0.17372 193.88746 -41.56307 -0.19474 50.11038 3.14209 6.71632 2.19808 -0.18484 -2.11994 -19.20633 -5.91935 -29.29737 31.47341 62.91536 -10.50145 4.64902 7.53348 63.33966 -12.79267 55.55438 -83.20554 2.66116 1.38944 32.64941 -5.90898 -8.90798 -2.94151 0.31045 -6.60947 -5.1811 33.99409 2.87555 8.87666 -10.42955 -7.42102 2.5659 3.52899
-0.63351 -0.00083 0.1713 192.93874 -41.67014 -0.2079 50.06336 3.35516 6.31898 2.43323 -0.34167 -2.11994 -18.24719 -6.77054 -26.41984 31.74179 65.35109 -9.61201 4.04578 23.27314 65.20477 -20.46248 49.13719 -83.78988 2.34147 0.92044 32.38592 -5.7545 -6.17517 -2.18127 0.37626 -10.00621 -7.06986 33.43744 2.85521 8.78366 -9.5533 -7.56484 2.63197 3.56467
-0.63571 -0.00069 0.16881 191.99969 -41.77226 -0.23691 49.98596 3.56346 5.75118 2.76928 -0.54346 -2.11994 -17.1835 -7.79766 -22.51314 32.09279 69.21693 -8.3688 3.02298 42.77515 66.5152 -29.79244 41.3467 -84.50247 1.81031 0.32597 32.16367 -5.60175 -2.56355 -1.55173 -0.05539 -14.19627 -9.42617 32.81996 2.8303 8.56709 -8.57749 -7.705 2.76932 3.63856
-0.63788 -0.00054 0.16635 191.07611 -41.8782 -0.26226 49.91866 3.76946 5.22758 3.08021 -0.72461 -2.11994 -16.12511 -8.71543 -19.13979 32.36358 72.30249 -7.35245 2.21395 60.30001 67.88953 -37.63842 34.32936 -85.10328 1.36788 -0.13347 31.92861 -5.44351 0.56594 -0.8792 -0.28831 -17.95559 -11.52 32.23061 2.81453 8.36305 -7.63858 -7.8056 2.99032 3.75711
-0.64011 -0.00042 0.16388 190.06023 -41.97765 -0.2738 49.86627 3.99522 4.84288 3.30622 -0.90549 -2.11994 -15.22886 -9.76157 -15.45654 32.81009 75.91685 -6.06499 1.31179 79.00991 70.0675 -48.43616 26.66042 -85.91719 0.95189 -0.90631 31.66542 -5.30351 4.04986 -0.13755 -0.40307 -22.03077 -13.83199 31.63481 2.76768 8.33887 -6.7276 -8.07331 2.74096 3.62425
-0.64222 -0.00024 0.16144 189.24621 -42.08954 -0.31688 49.777 4.17857 4.13135 3.73021 -1.09933 -2.11994 -13.98553 -10.57957 -12.19373 32.92216 78.78097 -5.2505 0.50321 96.09411 70.44258 -53.64551 20.03661 -86.33366 0.4363 -1.07585 31.4714 -5.12644 6.99596 0.42928 -0.87349 -25.61838 -15.79441 31.04244 2.7856 7.91609 -5.74192 -8.00118 3.4642 4.0113
